<svg width="22" height="28" viewBox="0 0 22 28" fill="none" xmlns="http://www.w3.org/2000/svg">
<path d="M12.772 27.3708C15.5848 23.8508 21.9998 15.3193 21.9998 10.5272C21.9998 4.71533 17.2845 0 11.4726 0C5.66064 0 0.945312 4.71533 0.945312 10.5272C0.945312 15.3193 7.36035 23.8508 10.1731 27.3708C10.8475 28.2097 12.0976 28.2097 12.772 27.3708ZM11.4726 7.01816C12.4032 7.01816 13.2958 7.38787 13.9538 8.04595C14.6119 8.70403 14.9816 9.59658 14.9816 10.5272C14.9816 11.4579 14.6119 12.3505 13.9538 13.0085C13.2958 13.6666 12.4032 14.0363 11.4726 14.0363C10.5419 14.0363 9.64934 13.6666 8.99126 13.0085C8.33318 12.3505 7.96347 11.4579 7.96347 10.5272C7.96347 9.59658 8.33318 8.70403 8.99126 8.04595C9.64934 7.38787 10.5419 7.01816 11.4726 7.01816Z" fill="white"/>
</svg>
