<svg width="17" height="19" viewBox="0 0 17 19" fill="none" xmlns="http://www.w3.org/2000/svg">
<path d="M17 1.625C17 5.61875 14.191 8.91992 10.552 9.42969C10.3162 7.55234 9.53594 5.85781 8.38379 4.53242C9.65547 2.12773 12.0859 0.5 14.875 0.5H15.9375C16.5252 0.5 17 1.00273 17 1.625ZM0 3.875C0 3.25273 0.474805 2.75 1.0625 2.75H2.125C6.23223 2.75 9.5625 6.27617 9.5625 10.625V11.75V17.375C9.5625 17.9973 9.0877 18.5 8.5 18.5C7.9123 18.5 7.4375 17.9973 7.4375 17.375V11.75C3.33027 11.75 0 8.22383 0 3.875Z" fill="#868686"/>
</svg>
