<svg width="23" height="19" viewBox="0 0 23 19" fill="none" xmlns="http://www.w3.org/2000/svg">
<path d="M12.4552 1.03742C11.6306 1.4063 11.5547 1.64499 11.5547 4.02102V6.08242L12.542 6.99377C13.4425 7.80748 13.551 7.87258 13.6486 7.69899C13.8222 7.3735 13.9524 7.33011 14.777 7.33011C15.7317 7.33011 15.8945 7.482 15.8945 8.41505C15.8945 9.22876 15.6992 9.5 15.1133 9.5C14.7119 9.5 14.6793 9.5217 14.7444 9.73869C14.777 9.87973 14.8095 10.1184 14.8095 10.2812C14.8095 10.5524 14.8529 10.5849 15.1784 10.5849C15.6883 10.5849 15.8945 10.8996 15.8945 11.6699C15.8945 12.4402 15.6883 12.7548 15.1893 12.7548H14.8312L14.7878 15.0007C14.7553 17.0946 14.7336 17.2899 14.5057 17.7239L14.2671 18.1796H17.5978C20.6682 18.1796 20.972 18.1579 21.406 17.9626C21.764 17.7998 21.9159 17.6479 22.0787 17.2899C22.2848 16.8451 22.2957 16.5196 22.2957 9.5C22.2957 2.4804 22.2848 2.15491 22.0787 1.71009C21.9159 1.35206 21.764 1.20016 21.406 1.03742C20.972 0.842131 20.6682 0.820433 16.9252 0.820433C13.193 0.820433 12.8783 0.842131 12.4552 1.03742ZM15.7209 4.31396C15.8294 4.46585 15.8945 4.79133 15.8945 5.16022C15.8945 6.09327 15.7317 6.24516 14.7553 6.24516C13.7137 6.24516 13.6161 6.14752 13.6161 5.16022C13.6161 4.17291 13.7137 4.07527 14.7553 4.07527C15.4605 4.07527 15.5798 4.10782 15.7209 4.31396ZM20.0607 4.31396C20.1692 4.46585 20.2343 4.79133 20.2343 5.16022C20.2343 6.09327 20.0715 6.24516 19.0951 6.24516C18.0535 6.24516 17.9559 6.14752 17.9559 5.16022C17.9559 4.17291 18.0535 4.07527 19.0951 4.07527C19.8003 4.07527 19.9196 4.10782 20.0607 4.31396ZM20.0607 7.5688C20.1692 7.72069 20.2343 8.04617 20.2343 8.41505C20.2343 9.34811 20.0715 9.5 19.0951 9.5C18.0535 9.5 17.9559 9.40235 17.9559 8.41505C17.9559 7.42775 18.0535 7.33011 19.0951 7.33011C19.8003 7.33011 19.9196 7.36266 20.0607 7.5688ZM20.0607 10.8236C20.1692 10.9755 20.2343 11.301 20.2343 11.6699C20.2343 12.6029 20.0715 12.7548 19.0951 12.7548C18.0535 12.7548 17.9559 12.6572 17.9559 11.6699C17.9559 10.6826 18.0535 10.5849 19.0951 10.5849C19.8003 10.5849 19.9196 10.6175 20.0607 10.8236Z" fill="#868686"/>
<path d="M6.2166 4.4767C5.2076 5.27956 0.889519 9.35896 0.802723 9.58679C0.748476 9.72784 0.705078 11.4638 0.705078 13.4384C0.705078 16.8559 0.715928 17.0621 0.922067 17.3984C1.05226 17.6045 1.33435 17.8432 1.60558 17.9626C2.02871 18.1579 2.36505 18.1796 7.16051 18.1796C11.9777 18.1796 12.2815 18.1579 12.7263 17.9626C13.0843 17.7998 13.2362 17.6479 13.3989 17.2899C13.5942 16.8559 13.6159 16.5521 13.6159 13.395C13.6159 11.2685 13.5725 9.84718 13.4966 9.64104C13.4206 9.42405 12.4876 8.491 10.73 6.88528C9.27615 5.5508 7.97422 4.40075 7.83317 4.32481C7.70298 4.24886 7.36665 4.19461 7.09541 4.18376C6.70483 4.18376 6.50954 4.24886 6.2166 4.4767ZM8.52754 10.2486C8.77707 10.4439 8.78792 10.5307 8.78792 11.6699C8.78792 13.2648 8.75538 13.2973 7.13881 13.2973C6.08641 13.2973 5.98876 13.2756 5.75008 13.0261C5.50054 12.7874 5.47884 12.6897 5.47884 11.6699C5.47884 10.65 5.50054 10.5524 5.75008 10.3137C5.98876 10.0642 6.08641 10.0425 7.13881 10.0425C8.09356 10.0425 8.3214 10.075 8.52754 10.2486Z" fill="#868686"/>
</svg>
