<svg width="23" height="19" viewBox="0 0 23 19" fill="none" xmlns="http://www.w3.org/2000/svg">
<path d="M2.16946 0.920225C1.62637 1.11574 1.12673 1.55021 0.909498 2.02813C0.724849 2.44087 0.703125 2.8319 0.703125 7.85003C0.703125 12.8682 0.724849 13.2592 0.909498 13.6719C1.1376 14.1607 1.63724 14.5952 2.21291 14.7907C2.45187 14.8667 3.65752 14.9102 5.7104 14.9102H8.82772L8.63221 15.4207L8.4367 15.942L7.00295 15.9964C5.60178 16.0507 5.56919 16.0615 5.30851 16.3548C4.95007 16.7675 4.95007 17.3975 5.30851 17.8103L5.56919 18.1144L9.76183 18.147L13.9436 18.1796L13.2485 17.517C12.1297 16.4308 11.4671 14.8885 11.4563 13.3569V12.7378H7.11156H2.76686V7.85003V2.96224H10.4244H18.0819V5.12373V7.29608L18.6902 7.41556C19.0269 7.49159 19.4614 7.61107 19.6678 7.69797C19.8633 7.78486 20.0588 7.85003 20.0914 7.85003C20.124 7.85003 20.1457 6.6661 20.1457 5.21062C20.1457 2.58208 20.1457 2.57121 19.8633 2.0064C19.6569 1.58279 19.4505 1.36556 19.0812 1.13746L18.5707 0.844194L10.533 0.82247C5.09128 0.811607 2.3867 0.844194 2.16946 0.920225Z" fill="#868686"/>
<path d="M12.9347 4.2765C12.7283 4.43943 12.6523 4.60236 12.6523 4.86304C12.6523 5.37354 13.0542 5.67767 13.7276 5.67767H14.2273L12.6523 7.25263C11.7834 8.12157 11.0339 8.82758 10.9796 8.82758C10.9144 8.82758 10.3496 8.31708 9.71962 7.6871C8.77465 6.76385 8.49225 6.54661 8.24242 6.54661C7.97088 6.54661 7.60158 6.8616 5.93973 8.53432C4.21271 10.2613 3.96289 10.5546 3.96289 10.8587C3.96289 11.2389 4.37564 11.6516 4.7558 11.6516C4.897 11.6516 5.55957 11.076 6.56971 10.0767C7.43865 9.20775 8.19898 8.50173 8.26415 8.50173C8.31846 8.50173 8.87241 9.01223 9.50239 9.64222C10.4474 10.5872 10.6972 10.7827 10.9687 10.7827C11.2511 10.7827 11.577 10.5003 13.2497 8.82758C14.325 7.75227 15.2374 6.87247 15.2808 6.87247C15.3352 6.87247 15.3677 7.04625 15.3677 7.26349C15.3677 7.53503 15.4112 7.64365 15.5089 7.6002C15.585 7.57848 15.9217 7.49159 16.2693 7.41555L16.8884 7.29607V5.93835C16.8884 4.6458 16.8775 4.56977 16.6168 4.31995C16.367 4.05927 16.3019 4.04841 14.7921 4.04841C13.3692 4.04841 13.1954 4.07013 12.9347 4.2765Z" fill="#868686"/>
<path d="M16.2352 8.58863C15.8441 8.68638 15.3119 8.90362 15.0404 9.06654C14.3126 9.49015 13.4437 10.4568 13.0527 11.2932C12.7268 11.9884 12.7051 12.097 12.7051 13.2809C12.7051 14.4648 12.7268 14.5735 13.0527 15.2686C14.4864 18.299 18.2989 19.0919 20.7102 16.8653C23.6646 14.1607 22.2743 9.22947 18.3641 8.51259C17.506 8.34967 17.0824 8.37139 16.2352 8.58863ZM17.9079 10.2613C18.0056 10.3917 18.0817 10.5763 18.0817 10.6741C18.0817 10.7718 18.2663 10.9022 18.5487 10.9999C18.9071 11.1303 19.0158 11.2172 19.0375 11.4453C19.0918 11.9558 18.8311 12.0861 17.9296 12.0209C17.0172 11.934 16.5176 12.097 16.8 12.3794C16.8869 12.4663 17.2453 12.6075 17.5929 12.6944C18.9832 13.0637 19.4611 13.5307 19.3525 14.4431C19.2982 14.9971 18.9832 15.3881 18.4401 15.5836C18.212 15.6705 18.0817 15.79 18.0817 15.9203C18.0817 16.3113 17.8753 16.5394 17.506 16.5394C17.0715 16.5394 16.8869 16.3765 16.8869 15.9855C16.8869 15.7139 16.8217 15.6705 16.2677 15.4858C15.616 15.2795 15.5074 15.1383 15.6269 14.6386C15.7138 14.2911 16.0288 14.215 16.6153 14.4105C17.1584 14.606 17.8318 14.6386 18.0708 14.4866C18.3532 14.3019 18.0925 14.063 17.3539 13.824C16.952 13.6937 16.4307 13.4764 16.2134 13.3569C15.2033 12.803 15.3879 11.3692 16.5176 10.9999C16.8 10.9022 16.8869 10.8153 16.8869 10.6198C16.8869 10.055 17.5929 9.81601 17.9079 10.2613Z" fill="#868686"/>
</svg>
