<svg width="25" height="19" viewBox="0 0 25 19" fill="none" xmlns="http://www.w3.org/2000/svg">
<path d="M2.8125 2.75C2.8125 2.15326 3.04297 1.58097 3.4532 1.15901C3.86344 0.737053 4.41984 0.5 5 0.5C5.58016 0.5 6.13656 0.737053 6.5468 1.15901C6.95703 1.58097 7.1875 2.15326 7.1875 2.75C7.1875 3.34674 6.95703 3.91903 6.5468 4.34099C6.13656 4.76295 5.58016 5 5 5C4.41984 5 3.86344 4.76295 3.4532 4.34099C3.04297 3.91903 2.8125 3.34674 2.8125 2.75ZM2.5 9.08616C2.10938 9.53616 1.875 10.1348 1.875 10.7857C1.875 11.4366 2.10938 12.0353 2.5 12.4853V9.08616ZM8.14062 7.10536C6.98047 8.16205 6.25 9.70893 6.25 11.4286C6.25 12.8067 6.71875 14.0723 7.5 15.0647V15.9286C7.5 16.6397 6.94141 17.2143 6.25 17.2143H3.75C3.05859 17.2143 2.5 16.6397 2.5 15.9286V14.8518C1.02344 14.1286 0 12.5817 0 10.7857C0 8.29866 1.95703 6.28571 4.375 6.28571H5.625C6.5625 6.28571 7.42969 6.58705 8.14062 7.10134V7.10536ZM17.5 15.9286V15.0647C18.2812 14.0723 18.75 12.8067 18.75 11.4286C18.75 9.70893 18.0195 8.16205 16.8594 7.10134C17.5703 6.58705 18.4375 6.28571 19.375 6.28571H20.625C23.043 6.28571 25 8.29866 25 10.7857C25 12.5817 23.9766 14.1286 22.5 14.8518V15.9286C22.5 16.6397 21.9414 17.2143 21.25 17.2143H18.75C18.0586 17.2143 17.5 16.6397 17.5 15.9286ZM17.8125 2.75C17.8125 2.15326 18.043 1.58097 18.4532 1.15901C18.8634 0.737053 19.4198 0.5 20 0.5C20.5802 0.5 21.1366 0.737053 21.5468 1.15901C21.957 1.58097 22.1875 2.15326 22.1875 2.75C22.1875 3.34674 21.957 3.91903 21.5468 4.34099C21.1366 4.76295 20.5802 5 20 5C19.4198 5 18.8634 4.76295 18.4532 4.34099C18.043 3.91903 17.8125 3.34674 17.8125 2.75ZM22.5 9.08616V12.4893C22.8906 12.0353 23.125 11.4406 23.125 10.7897C23.125 10.1388 22.8906 9.54018 22.5 9.09018V9.08616ZM12.5 0.5C13.163 0.5 13.7989 0.770918 14.2678 1.25315C14.7366 1.73539 15 2.38944 15 3.07143C15 3.75341 14.7366 4.40747 14.2678 4.8897C13.7989 5.37194 13.163 5.64286 12.5 5.64286C11.837 5.64286 11.2011 5.37194 10.7322 4.8897C10.2634 4.40747 10 3.75341 10 3.07143C10 2.38944 10.2634 1.73539 10.7322 1.25315C11.2011 0.770918 11.837 0.5 12.5 0.5ZM9.375 11.4286C9.375 12.0795 9.60938 12.6741 10 13.1281V9.72902C9.60938 10.183 9.375 10.7777 9.375 11.4286ZM15 9.72902V13.1321C15.3906 12.6781 15.625 12.0835 15.625 11.4326C15.625 10.7817 15.3906 10.183 15 9.73304V9.72902ZM17.5 11.4286C17.5 13.2246 16.4766 14.7714 15 15.4946V17.2143C15 17.9254 14.4414 18.5 13.75 18.5H11.25C10.5586 18.5 10 17.9254 10 17.2143V15.4946C8.52344 14.7714 7.5 13.2246 7.5 11.4286C7.5 8.94152 9.45703 6.92857 11.875 6.92857H13.125C15.543 6.92857 17.5 8.94152 17.5 11.4286Z" fill="#868686"/>
</svg>
