<svg width="13" height="19" viewBox="0 0 13 19" fill="none" xmlns="http://www.w3.org/2000/svg">
<path d="M6.5 0.5C5.0849 0.5 3.87969 1.43867 3.4362 2.75H2.16667C0.971615 2.75 0 3.75898 0 5V16.25C0 17.491 0.971615 18.5 2.16667 18.5H10.8333C12.0284 18.5 13 17.491 13 16.25V5C13 3.75898 12.0284 2.75 10.8333 2.75H9.5638C9.12031 1.43867 7.9151 0.5 6.5 0.5ZM6.5 2.75C6.78732 2.75 7.06287 2.86853 7.26603 3.0795C7.4692 3.29048 7.58333 3.57663 7.58333 3.875C7.58333 4.17337 7.4692 4.45952 7.26603 4.6705C7.06287 4.88147 6.78732 5 6.5 5C6.21268 5 5.93713 4.88147 5.73397 4.6705C5.5308 4.45952 5.41667 4.17337 5.41667 3.875C5.41667 3.57663 5.5308 3.29048 5.73397 3.0795C5.93713 2.86853 6.21268 2.75 6.5 2.75ZM10.3255 10.0977L5.99219 14.5977C5.67396 14.9281 5.15938 14.9281 4.84453 14.5977L2.67448 12.3477C2.35625 12.0172 2.35625 11.4828 2.67448 11.1559C2.99271 10.8289 3.50729 10.8254 3.82214 11.1559L5.41328 12.8082L9.17448 8.90234C9.49271 8.57187 10.0073 8.57187 10.3221 8.90234C10.637 9.23281 10.6404 9.76719 10.3221 10.0941L10.3255 10.0977Z" fill="#868686"/>
</svg>
